<svg xmlns="http://www.w3.org/2000/svg" viewBox="0 0 50 39.84"><defs><style>.cls-1{fill:#fff;}</style></defs><title>hl-logo_3xxhdpi</title><g id="图层_2" data-name="图层 2"><g id="图层_1-2" data-name="图层 1"><path class="cls-1" d="M23.58,28.62l-6.35-4.14v-6.9l-6.81-4.39V33c-4.8-3.41-7.9-8.26-7.9-13.81C2.52,12.59,6.66,6.81,13,3.36l-.81-.52C4.87,6.32,0,12.68,0,19.94c0,6.67,4.1,12.57,10.4,16.19h0l0,0h0l.11.05.36.2.3.16h0l0,0a27.41,27.41,0,0,0,4.85,2v0l.23.07.93.25V27.4l6.35,4.14v8.3H25c1.12,0,3.4-.06,4.48-.17l0-3V11.18L23.58,7.26Z"/><path class="cls-1" d="M25.77,0h0L25,0h0l-.77,0h0a30.27,30.27,0,0,0-9.57,1.76l.67.43a23.27,23.27,0,0,1,2.26-.82,28.49,28.49,0,0,1,14.85.22,26.24,26.24,0,0,1,5.89,2.53c5.56,3.5,9.13,8.92,9.13,15a15.88,15.88,0,0,1-.42,3.59l2.35,1.51a15.77,15.77,0,0,0,.59-4.3C50,9.13,39.22.34,25.77,0Z"/><path class="cls-1" d="M46.35,25A19.87,19.87,0,0,1,38,34.38l.06-17.29-5.76-3.88V37.83h0c0,.38,0,.77,0,1.15h0l.65-.17.55-.15.44-.13v0a27,27,0,0,0,4-1.55L38,37h0c.43-.21.86-.43,1.27-.66h0l1-.58a22.44,22.44,0,0,0,6.22-5.51h-.06a17.79,17.79,0,0,0,2.21-3.78Z"/></g></g></svg>